<?xml version="1.0" standalone="no"?><!DOCTYPE svg PUBLIC "-//W3C//DTD SVG 1.1//EN" "http://www.w3.org/Graphics/SVG/1.1/DTD/svg11.dtd"><svg t="1566516181534" class="icon" viewBox="0 0 1024 1024" version="1.1" xmlns="http://www.w3.org/2000/svg" p-id="4433" xmlns:xlink="http://www.w3.org/1999/xlink" width="200" height="200"><defs><style type="text/css">* { font-family: Verdana !important; }
</style></defs><path d="M511.952928 907.261229c-18.540262 0-35.905768-7.248078-48.926316-20.419052L295.290353 717.193359c-13.356193-13.498432-13.221116-35.251875 0.268106-48.598858 13.490246-13.338796 35.268248-13.204743 48.590672 0.277316l167.735235 169.647795L834.755892 512.058328c41.929971-42.407855 61.409628-101.19168 53.472865-161.276126-7.852852-59.429531-42.466184-111.082958-94.949512-141.720746-72.282257-42.206264-167.215396-26.719548-230.873228 37.625946l-26.040073 26.333762c-12.885472 13.053294-35.973306 13.053294-48.858778 0l-26.040073-26.333762c-63.624063-64.345494-158.540829-79.824023-230.847645-37.625946-45.243437 26.393113-77.307713 68.24736-90.285283 117.843942-13.062504 49.89948-5.763261 103.749946 20.042476 147.743926 9.605775 16.367783 4.118807 37.424354-12.257162 47.021943-16.367783 9.597589-37.432541 4.118807-47.021943-12.257162-34.966373-59.622936-44.899606-132.48336-27.248598-199.907982 17.634636-67.390853 61.015655-124.136252 122.122385-159.807683 99.371218-57.994855 228.66698-38.011732 314.354548 48.666397l1.610684 1.627056 1.610684-1.627056c85.671195-86.686315 214.950584-106.669438 314.363757-48.666397 70.973448 41.426505 117.801986 111.434975 128.456651 192.080714 10.738575 81.292468-15.772218 160.973228-72.751954 218.599693L560.861848 886.841154c-13.019525 13.170974-30.386054 20.420075-48.90892 20.420075z" fill="#444444" p-id="4434"></path><path d="M236.482993 657.254222l-60.73834-60.73834 210.887035-210.887034c13.419637-13.419637 35.176151-13.419637 48.595788 0l110.030999 110.030999 180.286086-180.286086 60.738339 60.738339-216.72602 216.72602c-13.419637 13.419637-35.176151 13.419637-48.595788 0L410.930093 482.808144 236.482993 657.254222z" fill="#00D8A0" p-id="4435"></path></svg>